<?xml version="1.0" encoding="utf-8" standalone="no"?>
<!DOCTYPE svg PUBLIC "-//W3C//DTD SVG 1.1//EN"
  "http://www.w3.org/Graphics/SVG/1.1/DTD/svg11.dtd">
<!-- Created with matplotlib (https://matplotlib.org/) -->
<svg height="248.518125pt" version="1.1" viewBox="0 0 377.304687 248.518125" width="377.304687pt" xmlns="http://www.w3.org/2000/svg" xmlns:xlink="http://www.w3.org/1999/xlink">
 <defs>
  <style type="text/css">
*{stroke-linecap:butt;stroke-linejoin:round;}
  </style>
 </defs>
 <g id="figure_1">
  <g id="patch_1">
   <path d="M 0 248.518125 
L 377.304687 248.518125 
L 377.304687 0 
L 0 0 
z
" style="fill:#ffffff;"/>
  </g>
  <g id="axes_1">
   <g id="patch_2">
    <path d="M 35.304688 224.64 
L 370.104688 224.64 
L 370.104688 7.2 
L 35.304688 7.2 
z
" style="fill:#ffffff;"/>
   </g>
   <g id="matplotlib.axis_1">
    <g id="xtick_1">
     <g id="line2d_1">
      <defs>
       <path d="M 0 0 
L 0 3.5 
" id="mc50bb18704" style="stroke:#000000;stroke-width:0.8;"/>
      </defs>
      <g>
       <use style="stroke:#000000;stroke-width:0.8;" x="50.522869" xlink:href="#mc50bb18704" y="224.64"/>
      </g>
     </g>
     <g id="text_1">
      <!-- 0 -->
      <defs>
       <path d="M 31.78125 66.40625 
Q 24.171875 66.40625 20.328125 58.90625 
Q 16.5 51.421875 16.5 36.375 
Q 16.5 21.390625 20.328125 13.890625 
Q 24.171875 6.390625 31.78125 6.390625 
Q 39.453125 6.390625 43.28125 13.890625 
Q 47.125 21.390625 47.125 36.375 
Q 47.125 51.421875 43.28125 58.90625 
Q 39.453125 66.40625 31.78125 66.40625 
z
M 31.78125 74.21875 
Q 44.046875 74.21875 50.515625 64.515625 
Q 56.984375 54.828125 56.984375 36.375 
Q 56.984375 17.96875 50.515625 8.265625 
Q 44.046875 -1.421875 31.78125 -1.421875 
Q 19.53125 -1.421875 13.0625 8.265625 
Q 6.59375 17.96875 6.59375 36.375 
Q 6.59375 54.828125 13.0625 64.515625 
Q 19.53125 74.21875 31.78125 74.21875 
z
" id="DejaVuSans-48"/>
      </defs>
      <g transform="translate(47.341619 239.238437)scale(0.1 -0.1)">
       <use xlink:href="#DejaVuSans-48"/>
      </g>
     </g>
    </g>
    <g id="xtick_2">
     <g id="line2d_2">
      <g>
       <use style="stroke:#000000;stroke-width:0.8;" x="112.010473" xlink:href="#mc50bb18704" y="224.64"/>
      </g>
     </g>
     <g id="text_2">
      <!-- 20 -->
      <defs>
       <path d="M 19.1875 8.296875 
L 53.609375 8.296875 
L 53.609375 0 
L 7.328125 0 
L 7.328125 8.296875 
Q 12.9375 14.109375 22.625 23.890625 
Q 32.328125 33.6875 34.8125 36.53125 
Q 39.546875 41.84375 41.421875 45.53125 
Q 43.3125 49.21875 43.3125 52.78125 
Q 43.3125 58.59375 39.234375 62.25 
Q 35.15625 65.921875 28.609375 65.921875 
Q 23.96875 65.921875 18.8125 64.3125 
Q 13.671875 62.703125 7.8125 59.421875 
L 7.8125 69.390625 
Q 13.765625 71.78125 18.9375 73 
Q 24.125 74.21875 28.421875 74.21875 
Q 39.75 74.21875 46.484375 68.546875 
Q 53.21875 62.890625 53.21875 53.421875 
Q 53.21875 48.921875 51.53125 44.890625 
Q 49.859375 40.875 45.40625 35.40625 
Q 44.1875 33.984375 37.640625 27.21875 
Q 31.109375 20.453125 19.1875 8.296875 
z
" id="DejaVuSans-50"/>
      </defs>
      <g transform="translate(105.647973 239.238437)scale(0.1 -0.1)">
       <use xlink:href="#DejaVuSans-50"/>
       <use x="63.623047" xlink:href="#DejaVuSans-48"/>
      </g>
     </g>
    </g>
    <g id="xtick_3">
     <g id="line2d_3">
      <g>
       <use style="stroke:#000000;stroke-width:0.8;" x="173.498076" xlink:href="#mc50bb18704" y="224.64"/>
      </g>
     </g>
     <g id="text_3">
      <!-- 40 -->
      <defs>
       <path d="M 37.796875 64.3125 
L 12.890625 25.390625 
L 37.796875 25.390625 
z
M 35.203125 72.90625 
L 47.609375 72.90625 
L 47.609375 25.390625 
L 58.015625 25.390625 
L 58.015625 17.1875 
L 47.609375 17.1875 
L 47.609375 0 
L 37.796875 0 
L 37.796875 17.1875 
L 4.890625 17.1875 
L 4.890625 26.703125 
z
" id="DejaVuSans-52"/>
      </defs>
      <g transform="translate(167.135576 239.238437)scale(0.1 -0.1)">
       <use xlink:href="#DejaVuSans-52"/>
       <use x="63.623047" xlink:href="#DejaVuSans-48"/>
      </g>
     </g>
    </g>
    <g id="xtick_4">
     <g id="line2d_4">
      <g>
       <use style="stroke:#000000;stroke-width:0.8;" x="234.985679" xlink:href="#mc50bb18704" y="224.64"/>
      </g>
     </g>
     <g id="text_4">
      <!-- 60 -->
      <defs>
       <path d="M 33.015625 40.375 
Q 26.375 40.375 22.484375 35.828125 
Q 18.609375 31.296875 18.609375 23.390625 
Q 18.609375 15.53125 22.484375 10.953125 
Q 26.375 6.390625 33.015625 6.390625 
Q 39.65625 6.390625 43.53125 10.953125 
Q 47.40625 15.53125 47.40625 23.390625 
Q 47.40625 31.296875 43.53125 35.828125 
Q 39.65625 40.375 33.015625 40.375 
z
M 52.59375 71.296875 
L 52.59375 62.3125 
Q 48.875 64.0625 45.09375 64.984375 
Q 41.3125 65.921875 37.59375 65.921875 
Q 27.828125 65.921875 22.671875 59.328125 
Q 17.53125 52.734375 16.796875 39.40625 
Q 19.671875 43.65625 24.015625 45.921875 
Q 28.375 48.1875 33.59375 48.1875 
Q 44.578125 48.1875 50.953125 41.515625 
Q 57.328125 34.859375 57.328125 23.390625 
Q 57.328125 12.15625 50.6875 5.359375 
Q 44.046875 -1.421875 33.015625 -1.421875 
Q 20.359375 -1.421875 13.671875 8.265625 
Q 6.984375 17.96875 6.984375 36.375 
Q 6.984375 53.65625 15.1875 63.9375 
Q 23.390625 74.21875 37.203125 74.21875 
Q 40.921875 74.21875 44.703125 73.484375 
Q 48.484375 72.75 52.59375 71.296875 
z
" id="DejaVuSans-54"/>
      </defs>
      <g transform="translate(228.623179 239.238437)scale(0.1 -0.1)">
       <use xlink:href="#DejaVuSans-54"/>
       <use x="63.623047" xlink:href="#DejaVuSans-48"/>
      </g>
     </g>
    </g>
    <g id="xtick_5">
     <g id="line2d_5">
      <g>
       <use style="stroke:#000000;stroke-width:0.8;" x="296.473283" xlink:href="#mc50bb18704" y="224.64"/>
      </g>
     </g>
     <g id="text_5">
      <!-- 80 -->
      <defs>
       <path d="M 31.78125 34.625 
Q 24.75 34.625 20.71875 30.859375 
Q 16.703125 27.09375 16.703125 20.515625 
Q 16.703125 13.921875 20.71875 10.15625 
Q 24.75 6.390625 31.78125 6.390625 
Q 38.8125 6.390625 42.859375 10.171875 
Q 46.921875 13.96875 46.921875 20.515625 
Q 46.921875 27.09375 42.890625 30.859375 
Q 38.875 34.625 31.78125 34.625 
z
M 21.921875 38.8125 
Q 15.578125 40.375 12.03125 44.71875 
Q 8.5 49.078125 8.5 55.328125 
Q 8.5 64.0625 14.71875 69.140625 
Q 20.953125 74.21875 31.78125 74.21875 
Q 42.671875 74.21875 48.875 69.140625 
Q 55.078125 64.0625 55.078125 55.328125 
Q 55.078125 49.078125 51.53125 44.71875 
Q 48 40.375 41.703125 38.8125 
Q 48.828125 37.15625 52.796875 32.3125 
Q 56.78125 27.484375 56.78125 20.515625 
Q 56.78125 9.90625 50.3125 4.234375 
Q 43.84375 -1.421875 31.78125 -1.421875 
Q 19.734375 -1.421875 13.25 4.234375 
Q 6.78125 9.90625 6.78125 20.515625 
Q 6.78125 27.484375 10.78125 32.3125 
Q 14.796875 37.15625 21.921875 38.8125 
z
M 18.3125 54.390625 
Q 18.3125 48.734375 21.84375 45.5625 
Q 25.390625 42.390625 31.78125 42.390625 
Q 38.140625 42.390625 41.71875 45.5625 
Q 45.3125 48.734375 45.3125 54.390625 
Q 45.3125 60.0625 41.71875 63.234375 
Q 38.140625 66.40625 31.78125 66.40625 
Q 25.390625 66.40625 21.84375 63.234375 
Q 18.3125 60.0625 18.3125 54.390625 
z
" id="DejaVuSans-56"/>
      </defs>
      <g transform="translate(290.110783 239.238437)scale(0.1 -0.1)">
       <use xlink:href="#DejaVuSans-56"/>
       <use x="63.623047" xlink:href="#DejaVuSans-48"/>
      </g>
     </g>
    </g>
    <g id="xtick_6">
     <g id="line2d_6">
      <g>
       <use style="stroke:#000000;stroke-width:0.8;" x="357.960886" xlink:href="#mc50bb18704" y="224.64"/>
      </g>
     </g>
     <g id="text_6">
      <!-- 100 -->
      <defs>
       <path d="M 12.40625 8.296875 
L 28.515625 8.296875 
L 28.515625 63.921875 
L 10.984375 60.40625 
L 10.984375 69.390625 
L 28.421875 72.90625 
L 38.28125 72.90625 
L 38.28125 8.296875 
L 54.390625 8.296875 
L 54.390625 0 
L 12.40625 0 
z
" id="DejaVuSans-49"/>
      </defs>
      <g transform="translate(348.417136 239.238437)scale(0.1 -0.1)">
       <use xlink:href="#DejaVuSans-49"/>
       <use x="63.623047" xlink:href="#DejaVuSans-48"/>
       <use x="127.246094" xlink:href="#DejaVuSans-48"/>
      </g>
     </g>
    </g>
   </g>
   <g id="matplotlib.axis_2">
    <g id="ytick_1">
     <g id="line2d_7">
      <defs>
       <path d="M 0 0 
L -3.5 0 
" id="m1123fdb06c" style="stroke:#000000;stroke-width:0.8;"/>
      </defs>
      <g>
       <use style="stroke:#000000;stroke-width:0.8;" x="35.304688" xlink:href="#m1123fdb06c" y="201.087505"/>
      </g>
     </g>
     <g id="text_7">
      <!-- −75 -->
      <defs>
       <path d="M 10.59375 35.5 
L 73.1875 35.5 
L 73.1875 27.203125 
L 10.59375 27.203125 
z
" id="DejaVuSans-8722"/>
       <path d="M 8.203125 72.90625 
L 55.078125 72.90625 
L 55.078125 68.703125 
L 28.609375 0 
L 18.3125 0 
L 43.21875 64.59375 
L 8.203125 64.59375 
z
" id="DejaVuSans-55"/>
       <path d="M 10.796875 72.90625 
L 49.515625 72.90625 
L 49.515625 64.59375 
L 19.828125 64.59375 
L 19.828125 46.734375 
Q 21.96875 47.46875 24.109375 47.828125 
Q 26.265625 48.1875 28.421875 48.1875 
Q 40.625 48.1875 47.75 41.5 
Q 54.890625 34.8125 54.890625 23.390625 
Q 54.890625 11.625 47.5625 5.09375 
Q 40.234375 -1.421875 26.90625 -1.421875 
Q 22.3125 -1.421875 17.546875 -0.640625 
Q 12.796875 0.140625 7.71875 1.703125 
L 7.71875 11.625 
Q 12.109375 9.234375 16.796875 8.0625 
Q 21.484375 6.890625 26.703125 6.890625 
Q 35.15625 6.890625 40.078125 11.328125 
Q 45.015625 15.765625 45.015625 23.390625 
Q 45.015625 31 40.078125 35.4375 
Q 35.15625 39.890625 26.703125 39.890625 
Q 22.75 39.890625 18.8125 39.015625 
Q 14.890625 38.140625 10.796875 36.28125 
z
" id="DejaVuSans-53"/>
      </defs>
      <g transform="translate(7.2 204.886724)scale(0.1 -0.1)">
       <use xlink:href="#DejaVuSans-8722"/>
       <use x="83.789062" xlink:href="#DejaVuSans-55"/>
       <use x="147.412109" xlink:href="#DejaVuSans-53"/>
      </g>
     </g>
    </g>
    <g id="ytick_2">
     <g id="line2d_8">
      <g>
       <use style="stroke:#000000;stroke-width:0.8;" x="35.304688" xlink:href="#m1123fdb06c" y="174.801238"/>
      </g>
     </g>
     <g id="text_8">
      <!-- −50 -->
      <g transform="translate(7.2 178.600457)scale(0.1 -0.1)">
       <use xlink:href="#DejaVuSans-8722"/>
       <use x="83.789062" xlink:href="#DejaVuSans-53"/>
       <use x="147.412109" xlink:href="#DejaVuSans-48"/>
      </g>
     </g>
    </g>
    <g id="ytick_3">
     <g id="line2d_9">
      <g>
       <use style="stroke:#000000;stroke-width:0.8;" x="35.304688" xlink:href="#m1123fdb06c" y="148.514971"/>
      </g>
     </g>
     <g id="text_9">
      <!-- −25 -->
      <g transform="translate(7.2 152.31419)scale(0.1 -0.1)">
       <use xlink:href="#DejaVuSans-8722"/>
       <use x="83.789062" xlink:href="#DejaVuSans-50"/>
       <use x="147.412109" xlink:href="#DejaVuSans-53"/>
      </g>
     </g>
    </g>
    <g id="ytick_4">
     <g id="line2d_10">
      <g>
       <use style="stroke:#000000;stroke-width:0.8;" x="35.304688" xlink:href="#m1123fdb06c" y="122.228704"/>
      </g>
     </g>
     <g id="text_10">
      <!-- 0 -->
      <g transform="translate(21.942188 126.027923)scale(0.1 -0.1)">
       <use xlink:href="#DejaVuSans-48"/>
      </g>
     </g>
    </g>
    <g id="ytick_5">
     <g id="line2d_11">
      <g>
       <use style="stroke:#000000;stroke-width:0.8;" x="35.304688" xlink:href="#m1123fdb06c" y="95.942437"/>
      </g>
     </g>
     <g id="text_11">
      <!-- 25 -->
      <g transform="translate(15.579688 99.741656)scale(0.1 -0.1)">
       <use xlink:href="#DejaVuSans-50"/>
       <use x="63.623047" xlink:href="#DejaVuSans-53"/>
      </g>
     </g>
    </g>
    <g id="ytick_6">
     <g id="line2d_12">
      <g>
       <use style="stroke:#000000;stroke-width:0.8;" x="35.304688" xlink:href="#m1123fdb06c" y="69.65617"/>
      </g>
     </g>
     <g id="text_12">
      <!-- 50 -->
      <g transform="translate(15.579688 73.455389)scale(0.1 -0.1)">
       <use xlink:href="#DejaVuSans-53"/>
       <use x="63.623047" xlink:href="#DejaVuSans-48"/>
      </g>
     </g>
    </g>
    <g id="ytick_7">
     <g id="line2d_13">
      <g>
       <use style="stroke:#000000;stroke-width:0.8;" x="35.304688" xlink:href="#m1123fdb06c" y="43.369903"/>
      </g>
     </g>
     <g id="text_13">
      <!-- 75 -->
      <g transform="translate(15.579688 47.169122)scale(0.1 -0.1)">
       <use xlink:href="#DejaVuSans-55"/>
       <use x="63.623047" xlink:href="#DejaVuSans-53"/>
      </g>
     </g>
    </g>
    <g id="ytick_8">
     <g id="line2d_14">
      <g>
       <use style="stroke:#000000;stroke-width:0.8;" x="35.304688" xlink:href="#m1123fdb06c" y="17.083636"/>
      </g>
     </g>
     <g id="text_14">
      <!-- 100 -->
      <g transform="translate(9.217188 20.882855)scale(0.1 -0.1)">
       <use xlink:href="#DejaVuSans-49"/>
       <use x="63.623047" xlink:href="#DejaVuSans-48"/>
       <use x="127.246094" xlink:href="#DejaVuSans-48"/>
      </g>
     </g>
    </g>
   </g>
   <g id="line2d_15">
    <path clip-path="url(#p257b63dfc7)" d="M 50.522869 186.367195 
L 53.597249 180.058491 
L 56.67163 27.598143 
L 59.74601 111.714197 
L 62.82039 116.971451 
L 65.89477 17.083636 
L 68.96915 174.801238 
L 72.04353 180.058491 
L 75.117911 111.714197 
L 78.192291 175.852689 
L 81.266671 18.135087 
L 84.341051 196.881702 
L 87.415431 27.598143 
L 90.489811 22.34089 
L 93.564192 118.022901 
L 96.638572 186.367195 
L 99.712952 174.801238 
L 102.787332 111.714197 
L 105.861712 39.164101 
L 108.936092 180.058491 
L 112.010473 209.49911 
L 115.084853 186.367195 
L 118.159233 197.933153 
L 121.233613 112.765648 
L 124.307993 112.765648 
L 127.382373 17.083636 
L 130.456754 17.083636 
L 133.531134 22.34089 
L 136.605514 210.550561 
L 139.679894 36.009749 
L 142.754274 112.765648 
L 145.828654 124.331605 
L 148.903035 17.083636 
L 151.977415 29.701044 
L 155.051795 116.971451 
L 158.126175 17.083636 
L 161.200555 181.109942 
L 164.274935 119.074352 
L 167.349316 111.714197 
L 170.423696 111.714197 
L 173.498076 180.058491 
L 176.572456 28.649594 
L 179.646836 30.752495 
L 182.721216 196.881702 
L 185.795597 198.984603 
L 188.869977 32.855397 
L 191.944357 180.058491 
L 195.018737 214.756364 
L 198.093117 27.598143 
L 201.167497 17.083636 
L 204.241878 17.083636 
L 207.316258 118.022901 
L 210.390638 27.598143 
L 213.465018 111.714197 
L 216.539398 22.34089 
L 219.613778 17.083636 
L 222.688159 185.315745 
L 225.762539 111.714197 
L 228.836919 185.315745 
L 231.911299 174.801238 
L 234.985679 191.624449 
L 238.060059 174.801238 
L 241.13444 28.649594 
L 244.20882 111.714197 
L 247.2832 27.598143 
L 250.35758 180.058491 
L 253.43196 17.083636 
L 256.50634 23.39234 
L 259.580721 28.649594 
L 262.655101 174.801238 
L 265.729481 116.971451 
L 268.803861 174.801238 
L 271.878241 17.083636 
L 274.952621 111.714197 
L 278.027002 111.714197 
L 281.101382 18.135087 
L 284.175762 113.817099 
L 287.250142 17.083636 
L 290.324522 116.971451 
L 293.398902 111.714197 
L 296.473283 174.801238 
L 299.547663 181.109942 
L 302.622043 32.855397 
L 305.696423 112.765648 
L 308.770803 38.11265 
L 311.845183 27.598143 
L 314.919564 111.714197 
L 317.993944 18.135087 
L 321.068324 180.058491 
L 324.142704 185.315745 
L 327.217084 111.714197 
L 330.291464 118.022901 
L 333.365845 112.765648 
L 336.440225 181.109942 
L 339.514605 185.315745 
L 342.588985 118.022901 
L 345.663365 27.598143 
L 348.737745 27.598143 
L 351.812126 111.714197 
L 354.886506 180.058491 
" style="fill:none;stroke:#0000ff;stroke-linecap:square;stroke-width:3;"/>
   </g>
   <g id="line2d_16">
    <path clip-path="url(#p257b63dfc7)" d="M 50.522869 186.367195 
L 53.597249 183.212843 
L 56.67163 131.341277 
L 59.74601 126.434507 
L 62.82039 124.541896 
L 65.89477 106.632186 
L 68.96915 116.370622 
L 72.04353 124.331605 
L 75.117911 122.929671 
L 78.192291 128.221973 
L 81.266671 118.214074 
L 84.341051 124.76971 
L 87.415431 117.294974 
L 90.489811 110.512539 
L 93.564192 111.01323 
L 96.638572 115.722853 
L 99.712952 119.198052 
L 102.787332 118.782282 
L 105.861712 114.591852 
L 108.936092 117.865184 
L 112.010473 122.228704 
L 115.084853 125.14409 
L 118.159233 128.308832 
L 121.233613 127.661199 
L 124.307993 127.065377 
L 127.382373 122.83531 
L 130.456754 118.918582 
L 133.531134 115.469378 
L 136.605514 118.74804 
L 139.679894 115.990097 
L 142.754274 115.886082 
L 145.828654 116.150005 
L 148.903035 113.147994 
L 151.977415 110.693672 
L 155.051795 110.873037 
L 158.126175 108.267776 
L 161.200555 110.236483 
L 164.274935 110.469058 
L 167.349316 110.500985 
L 170.423696 110.531315 
L 173.498076 112.2271 
L 176.572456 110.237159 
L 179.646836 108.388679 
L 182.721216 110.399884 
L 185.795597 112.368433 
L 188.869977 110.639889 
L 191.944357 112.116881 
L 195.018737 114.255203 
L 198.093117 112.486692 
L 201.167497 110.578631 
L 204.241878 108.745395 
L 207.316258 108.923809 
L 210.390638 107.389362 
L 213.465018 107.469452 
L 216.539398 105.92166 
L 219.613778 104.335267 
L 222.688159 105.755977 
L 225.762539 105.858705 
L 228.836919 107.205434 
L 231.911299 108.332031 
L 234.985679 109.69748 
L 238.060059 110.747541 
L 241.13444 109.444399 
L 244.20882 109.479865 
L 247.2832 108.220146 
L 250.35758 109.308606 
L 253.43196 107.932114 
L 256.50634 106.688882 
L 259.580721 105.557877 
L 262.655101 106.547068 
L 265.729481 106.693891 
L 268.803861 107.639826 
L 271.878241 106.39933 
L 274.952621 106.471153 
L 278.027002 106.54106 
L 281.101382 105.377823 
L 284.175762 105.487424 
L 287.250142 104.354043 
L 290.324522 104.513757 
L 293.398902 104.603762 
L 296.473283 105.470398 
L 299.547663 106.392831 
L 302.622043 105.506838 
L 305.696423 105.593252 
L 308.770803 104.799363 
L 311.845183 103.901674 
L 314.919564 103.991473 
L 317.993944 103.015833 
L 321.068324 103.88148 
L 324.142704 104.786306 
L 327.217084 104.862436 
L 330.291464 105.005485 
L 333.365845 105.088927 
L 336.440225 105.897662 
L 339.514605 106.733641 
L 342.588985 106.851238 
L 345.663365 106.034196 
L 348.737745 105.233828 
L 351.812126 105.299286 
L 354.886506 106.046878 
" style="fill:none;stroke:#ff0000;stroke-linecap:square;stroke-width:3;"/>
   </g>
   <g id="patch_3">
    <path d="M 35.304688 224.64 
L 35.304688 7.2 
" style="fill:none;stroke:#000000;stroke-linecap:square;stroke-linejoin:miter;stroke-width:0.8;"/>
   </g>
   <g id="patch_4">
    <path d="M 370.104688 224.64 
L 370.104688 7.2 
" style="fill:none;stroke:#000000;stroke-linecap:square;stroke-linejoin:miter;stroke-width:0.8;"/>
   </g>
   <g id="patch_5">
    <path d="M 35.304688 224.64 
L 370.104688 224.64 
" style="fill:none;stroke:#000000;stroke-linecap:square;stroke-linejoin:miter;stroke-width:0.8;"/>
   </g>
   <g id="patch_6">
    <path d="M 35.304688 7.2 
L 370.104688 7.2 
" style="fill:none;stroke:#000000;stroke-linecap:square;stroke-linejoin:miter;stroke-width:0.8;"/>
   </g>
  </g>
 </g>
 <defs>
  <clipPath id="p257b63dfc7">
   <rect height="217.44" width="334.8" x="35.304688" y="7.2"/>
  </clipPath>
 </defs>
</svg>
