<?xml version="1.0" encoding="utf-8" standalone="no"?>
<!DOCTYPE svg PUBLIC "-//W3C//DTD SVG 1.1//EN"
  "http://www.w3.org/Graphics/SVG/1.1/DTD/svg11.dtd">
<!-- Created with matplotlib (https://matplotlib.org/) -->
<svg height="248.518125pt" version="1.1" viewBox="0 0 377.304687 248.518125" width="377.304687pt" xmlns="http://www.w3.org/2000/svg" xmlns:xlink="http://www.w3.org/1999/xlink">
 <defs>
  <style type="text/css">
*{stroke-linecap:butt;stroke-linejoin:round;}
  </style>
 </defs>
 <g id="figure_1">
  <g id="patch_1">
   <path d="M 0 248.518125 
L 377.304687 248.518125 
L 377.304687 0 
L 0 0 
z
" style="fill:#ffffff;"/>
  </g>
  <g id="axes_1">
   <g id="patch_2">
    <path d="M 35.304688 224.64 
L 370.104688 224.64 
L 370.104688 7.2 
L 35.304688 7.2 
z
" style="fill:#ffffff;"/>
   </g>
   <g id="matplotlib.axis_1">
    <g id="xtick_1">
     <g id="line2d_1">
      <defs>
       <path d="M 0 0 
L 0 3.5 
" id="m0064a317dc" style="stroke:#000000;stroke-width:0.8;"/>
      </defs>
      <g>
       <use style="stroke:#000000;stroke-width:0.8;" x="50.522869" xlink:href="#m0064a317dc" y="224.64"/>
      </g>
     </g>
     <g id="text_1">
      <!-- 0 -->
      <defs>
       <path d="M 31.78125 66.40625 
Q 24.171875 66.40625 20.328125 58.90625 
Q 16.5 51.421875 16.5 36.375 
Q 16.5 21.390625 20.328125 13.890625 
Q 24.171875 6.390625 31.78125 6.390625 
Q 39.453125 6.390625 43.28125 13.890625 
Q 47.125 21.390625 47.125 36.375 
Q 47.125 51.421875 43.28125 58.90625 
Q 39.453125 66.40625 31.78125 66.40625 
z
M 31.78125 74.21875 
Q 44.046875 74.21875 50.515625 64.515625 
Q 56.984375 54.828125 56.984375 36.375 
Q 56.984375 17.96875 50.515625 8.265625 
Q 44.046875 -1.421875 31.78125 -1.421875 
Q 19.53125 -1.421875 13.0625 8.265625 
Q 6.59375 17.96875 6.59375 36.375 
Q 6.59375 54.828125 13.0625 64.515625 
Q 19.53125 74.21875 31.78125 74.21875 
z
" id="DejaVuSans-48"/>
      </defs>
      <g transform="translate(47.341619 239.238438)scale(0.1 -0.1)">
       <use xlink:href="#DejaVuSans-48"/>
      </g>
     </g>
    </g>
    <g id="xtick_2">
     <g id="line2d_2">
      <g>
       <use style="stroke:#000000;stroke-width:0.8;" x="112.010473" xlink:href="#m0064a317dc" y="224.64"/>
      </g>
     </g>
     <g id="text_2">
      <!-- 20 -->
      <defs>
       <path d="M 19.1875 8.296875 
L 53.609375 8.296875 
L 53.609375 0 
L 7.328125 0 
L 7.328125 8.296875 
Q 12.9375 14.109375 22.625 23.890625 
Q 32.328125 33.6875 34.8125 36.53125 
Q 39.546875 41.84375 41.421875 45.53125 
Q 43.3125 49.21875 43.3125 52.78125 
Q 43.3125 58.59375 39.234375 62.25 
Q 35.15625 65.921875 28.609375 65.921875 
Q 23.96875 65.921875 18.8125 64.3125 
Q 13.671875 62.703125 7.8125 59.421875 
L 7.8125 69.390625 
Q 13.765625 71.78125 18.9375 73 
Q 24.125 74.21875 28.421875 74.21875 
Q 39.75 74.21875 46.484375 68.546875 
Q 53.21875 62.890625 53.21875 53.421875 
Q 53.21875 48.921875 51.53125 44.890625 
Q 49.859375 40.875 45.40625 35.40625 
Q 44.1875 33.984375 37.640625 27.21875 
Q 31.109375 20.453125 19.1875 8.296875 
z
" id="DejaVuSans-50"/>
      </defs>
      <g transform="translate(105.647973 239.238438)scale(0.1 -0.1)">
       <use xlink:href="#DejaVuSans-50"/>
       <use x="63.623047" xlink:href="#DejaVuSans-48"/>
      </g>
     </g>
    </g>
    <g id="xtick_3">
     <g id="line2d_3">
      <g>
       <use style="stroke:#000000;stroke-width:0.8;" x="173.498076" xlink:href="#m0064a317dc" y="224.64"/>
      </g>
     </g>
     <g id="text_3">
      <!-- 40 -->
      <defs>
       <path d="M 37.796875 64.3125 
L 12.890625 25.390625 
L 37.796875 25.390625 
z
M 35.203125 72.90625 
L 47.609375 72.90625 
L 47.609375 25.390625 
L 58.015625 25.390625 
L 58.015625 17.1875 
L 47.609375 17.1875 
L 47.609375 0 
L 37.796875 0 
L 37.796875 17.1875 
L 4.890625 17.1875 
L 4.890625 26.703125 
z
" id="DejaVuSans-52"/>
      </defs>
      <g transform="translate(167.135576 239.238438)scale(0.1 -0.1)">
       <use xlink:href="#DejaVuSans-52"/>
       <use x="63.623047" xlink:href="#DejaVuSans-48"/>
      </g>
     </g>
    </g>
    <g id="xtick_4">
     <g id="line2d_4">
      <g>
       <use style="stroke:#000000;stroke-width:0.8;" x="234.985679" xlink:href="#m0064a317dc" y="224.64"/>
      </g>
     </g>
     <g id="text_4">
      <!-- 60 -->
      <defs>
       <path d="M 33.015625 40.375 
Q 26.375 40.375 22.484375 35.828125 
Q 18.609375 31.296875 18.609375 23.390625 
Q 18.609375 15.53125 22.484375 10.953125 
Q 26.375 6.390625 33.015625 6.390625 
Q 39.65625 6.390625 43.53125 10.953125 
Q 47.40625 15.53125 47.40625 23.390625 
Q 47.40625 31.296875 43.53125 35.828125 
Q 39.65625 40.375 33.015625 40.375 
z
M 52.59375 71.296875 
L 52.59375 62.3125 
Q 48.875 64.0625 45.09375 64.984375 
Q 41.3125 65.921875 37.59375 65.921875 
Q 27.828125 65.921875 22.671875 59.328125 
Q 17.53125 52.734375 16.796875 39.40625 
Q 19.671875 43.65625 24.015625 45.921875 
Q 28.375 48.1875 33.59375 48.1875 
Q 44.578125 48.1875 50.953125 41.515625 
Q 57.328125 34.859375 57.328125 23.390625 
Q 57.328125 12.15625 50.6875 5.359375 
Q 44.046875 -1.421875 33.015625 -1.421875 
Q 20.359375 -1.421875 13.671875 8.265625 
Q 6.984375 17.96875 6.984375 36.375 
Q 6.984375 53.65625 15.1875 63.9375 
Q 23.390625 74.21875 37.203125 74.21875 
Q 40.921875 74.21875 44.703125 73.484375 
Q 48.484375 72.75 52.59375 71.296875 
z
" id="DejaVuSans-54"/>
      </defs>
      <g transform="translate(228.623179 239.238438)scale(0.1 -0.1)">
       <use xlink:href="#DejaVuSans-54"/>
       <use x="63.623047" xlink:href="#DejaVuSans-48"/>
      </g>
     </g>
    </g>
    <g id="xtick_5">
     <g id="line2d_5">
      <g>
       <use style="stroke:#000000;stroke-width:0.8;" x="296.473283" xlink:href="#m0064a317dc" y="224.64"/>
      </g>
     </g>
     <g id="text_5">
      <!-- 80 -->
      <defs>
       <path d="M 31.78125 34.625 
Q 24.75 34.625 20.71875 30.859375 
Q 16.703125 27.09375 16.703125 20.515625 
Q 16.703125 13.921875 20.71875 10.15625 
Q 24.75 6.390625 31.78125 6.390625 
Q 38.8125 6.390625 42.859375 10.171875 
Q 46.921875 13.96875 46.921875 20.515625 
Q 46.921875 27.09375 42.890625 30.859375 
Q 38.875 34.625 31.78125 34.625 
z
M 21.921875 38.8125 
Q 15.578125 40.375 12.03125 44.71875 
Q 8.5 49.078125 8.5 55.328125 
Q 8.5 64.0625 14.71875 69.140625 
Q 20.953125 74.21875 31.78125 74.21875 
Q 42.671875 74.21875 48.875 69.140625 
Q 55.078125 64.0625 55.078125 55.328125 
Q 55.078125 49.078125 51.53125 44.71875 
Q 48 40.375 41.703125 38.8125 
Q 48.828125 37.15625 52.796875 32.3125 
Q 56.78125 27.484375 56.78125 20.515625 
Q 56.78125 9.90625 50.3125 4.234375 
Q 43.84375 -1.421875 31.78125 -1.421875 
Q 19.734375 -1.421875 13.25 4.234375 
Q 6.78125 9.90625 6.78125 20.515625 
Q 6.78125 27.484375 10.78125 32.3125 
Q 14.796875 37.15625 21.921875 38.8125 
z
M 18.3125 54.390625 
Q 18.3125 48.734375 21.84375 45.5625 
Q 25.390625 42.390625 31.78125 42.390625 
Q 38.140625 42.390625 41.71875 45.5625 
Q 45.3125 48.734375 45.3125 54.390625 
Q 45.3125 60.0625 41.71875 63.234375 
Q 38.140625 66.40625 31.78125 66.40625 
Q 25.390625 66.40625 21.84375 63.234375 
Q 18.3125 60.0625 18.3125 54.390625 
z
" id="DejaVuSans-56"/>
      </defs>
      <g transform="translate(290.110783 239.238438)scale(0.1 -0.1)">
       <use xlink:href="#DejaVuSans-56"/>
       <use x="63.623047" xlink:href="#DejaVuSans-48"/>
      </g>
     </g>
    </g>
    <g id="xtick_6">
     <g id="line2d_6">
      <g>
       <use style="stroke:#000000;stroke-width:0.8;" x="357.960886" xlink:href="#m0064a317dc" y="224.64"/>
      </g>
     </g>
     <g id="text_6">
      <!-- 100 -->
      <defs>
       <path d="M 12.40625 8.296875 
L 28.515625 8.296875 
L 28.515625 63.921875 
L 10.984375 60.40625 
L 10.984375 69.390625 
L 28.421875 72.90625 
L 38.28125 72.90625 
L 38.28125 8.296875 
L 54.390625 8.296875 
L 54.390625 0 
L 12.40625 0 
z
" id="DejaVuSans-49"/>
      </defs>
      <g transform="translate(348.417136 239.238438)scale(0.1 -0.1)">
       <use xlink:href="#DejaVuSans-49"/>
       <use x="63.623047" xlink:href="#DejaVuSans-48"/>
       <use x="127.246094" xlink:href="#DejaVuSans-48"/>
      </g>
     </g>
    </g>
   </g>
   <g id="matplotlib.axis_2">
    <g id="ytick_1">
     <g id="line2d_7">
      <defs>
       <path d="M 0 0 
L -3.5 0 
" id="mb5c4bb4c37" style="stroke:#000000;stroke-width:0.8;"/>
      </defs>
      <g>
       <use style="stroke:#000000;stroke-width:0.8;" x="35.304688" xlink:href="#mb5c4bb4c37" y="212.522773"/>
      </g>
     </g>
     <g id="text_7">
      <!-- −75 -->
      <defs>
       <path d="M 10.59375 35.5 
L 73.1875 35.5 
L 73.1875 27.203125 
L 10.59375 27.203125 
z
" id="DejaVuSans-8722"/>
       <path d="M 8.203125 72.90625 
L 55.078125 72.90625 
L 55.078125 68.703125 
L 28.609375 0 
L 18.3125 0 
L 43.21875 64.59375 
L 8.203125 64.59375 
z
" id="DejaVuSans-55"/>
       <path d="M 10.796875 72.90625 
L 49.515625 72.90625 
L 49.515625 64.59375 
L 19.828125 64.59375 
L 19.828125 46.734375 
Q 21.96875 47.46875 24.109375 47.828125 
Q 26.265625 48.1875 28.421875 48.1875 
Q 40.625 48.1875 47.75 41.5 
Q 54.890625 34.8125 54.890625 23.390625 
Q 54.890625 11.625 47.5625 5.09375 
Q 40.234375 -1.421875 26.90625 -1.421875 
Q 22.3125 -1.421875 17.546875 -0.640625 
Q 12.796875 0.140625 7.71875 1.703125 
L 7.71875 11.625 
Q 12.109375 9.234375 16.796875 8.0625 
Q 21.484375 6.890625 26.703125 6.890625 
Q 35.15625 6.890625 40.078125 11.328125 
Q 45.015625 15.765625 45.015625 23.390625 
Q 45.015625 31 40.078125 35.4375 
Q 35.15625 39.890625 26.703125 39.890625 
Q 22.75 39.890625 18.8125 39.015625 
Q 14.890625 38.140625 10.796875 36.28125 
z
" id="DejaVuSans-53"/>
      </defs>
      <g transform="translate(7.2 216.321992)scale(0.1 -0.1)">
       <use xlink:href="#DejaVuSans-8722"/>
       <use x="83.789062" xlink:href="#DejaVuSans-55"/>
       <use x="147.412109" xlink:href="#DejaVuSans-53"/>
      </g>
     </g>
    </g>
    <g id="ytick_2">
     <g id="line2d_8">
      <g>
       <use style="stroke:#000000;stroke-width:0.8;" x="35.304688" xlink:href="#mb5c4bb4c37" y="184.602897"/>
      </g>
     </g>
     <g id="text_8">
      <!-- −50 -->
      <g transform="translate(7.2 188.402116)scale(0.1 -0.1)">
       <use xlink:href="#DejaVuSans-8722"/>
       <use x="83.789062" xlink:href="#DejaVuSans-53"/>
       <use x="147.412109" xlink:href="#DejaVuSans-48"/>
      </g>
     </g>
    </g>
    <g id="ytick_3">
     <g id="line2d_9">
      <g>
       <use style="stroke:#000000;stroke-width:0.8;" x="35.304688" xlink:href="#mb5c4bb4c37" y="156.68302"/>
      </g>
     </g>
     <g id="text_9">
      <!-- −25 -->
      <g transform="translate(7.2 160.482239)scale(0.1 -0.1)">
       <use xlink:href="#DejaVuSans-8722"/>
       <use x="83.789062" xlink:href="#DejaVuSans-50"/>
       <use x="147.412109" xlink:href="#DejaVuSans-53"/>
      </g>
     </g>
    </g>
    <g id="ytick_4">
     <g id="line2d_10">
      <g>
       <use style="stroke:#000000;stroke-width:0.8;" x="35.304688" xlink:href="#mb5c4bb4c37" y="128.763143"/>
      </g>
     </g>
     <g id="text_10">
      <!-- 0 -->
      <g transform="translate(21.942188 132.562362)scale(0.1 -0.1)">
       <use xlink:href="#DejaVuSans-48"/>
      </g>
     </g>
    </g>
    <g id="ytick_5">
     <g id="line2d_11">
      <g>
       <use style="stroke:#000000;stroke-width:0.8;" x="35.304688" xlink:href="#mb5c4bb4c37" y="100.843267"/>
      </g>
     </g>
     <g id="text_11">
      <!-- 25 -->
      <g transform="translate(15.579688 104.642485)scale(0.1 -0.1)">
       <use xlink:href="#DejaVuSans-50"/>
       <use x="63.623047" xlink:href="#DejaVuSans-53"/>
      </g>
     </g>
    </g>
    <g id="ytick_6">
     <g id="line2d_12">
      <g>
       <use style="stroke:#000000;stroke-width:0.8;" x="35.304688" xlink:href="#mb5c4bb4c37" y="72.92339"/>
      </g>
     </g>
     <g id="text_12">
      <!-- 50 -->
      <g transform="translate(15.579688 76.722609)scale(0.1 -0.1)">
       <use xlink:href="#DejaVuSans-53"/>
       <use x="63.623047" xlink:href="#DejaVuSans-48"/>
      </g>
     </g>
    </g>
    <g id="ytick_7">
     <g id="line2d_13">
      <g>
       <use style="stroke:#000000;stroke-width:0.8;" x="35.304688" xlink:href="#mb5c4bb4c37" y="45.003513"/>
      </g>
     </g>
     <g id="text_13">
      <!-- 75 -->
      <g transform="translate(15.579688 48.802732)scale(0.1 -0.1)">
       <use xlink:href="#DejaVuSans-55"/>
       <use x="63.623047" xlink:href="#DejaVuSans-53"/>
      </g>
     </g>
    </g>
    <g id="ytick_8">
     <g id="line2d_14">
      <g>
       <use style="stroke:#000000;stroke-width:0.8;" x="35.304688" xlink:href="#mb5c4bb4c37" y="17.083636"/>
      </g>
     </g>
     <g id="text_14">
      <!-- 100 -->
      <g transform="translate(9.217188 20.882855)scale(0.1 -0.1)">
       <use xlink:href="#DejaVuSans-49"/>
       <use x="63.623047" xlink:href="#DejaVuSans-48"/>
       <use x="127.246094" xlink:href="#DejaVuSans-48"/>
      </g>
     </g>
    </g>
   </g>
   <g id="line2d_15">
    <path clip-path="url(#p377f3e05cf)" d="M 50.522869 192.420462 
L 53.597249 195.770847 
L 56.67163 199.121233 
L 59.74601 17.083636 
L 62.82039 24.901202 
L 65.89477 18.200431 
L 68.96915 17.083636 
L 72.04353 192.420462 
L 75.117911 124.295963 
L 78.192291 17.083636 
L 81.266671 147.748659 
L 84.341051 17.083636 
L 87.415431 211.405978 
L 90.489811 195.770847 
L 93.564192 209.172388 
L 96.638572 17.083636 
L 99.712952 198.004438 
L 102.787332 28.251587 
L 105.861712 17.083636 
L 108.936092 123.179168 
L 112.010473 184.602897 
L 115.084853 125.412758 
L 118.159233 129.879938 
L 121.233613 62.872234 
L 124.307993 184.602897 
L 127.382373 36.069153 
L 130.456754 117.595193 
L 133.531134 124.295963 
L 136.605514 184.602897 
L 139.679894 39.419538 
L 142.754274 190.186872 
L 145.828654 24.901202 
L 148.903035 135.463914 
L 151.977415 117.595193 
L 155.051795 117.595193 
L 158.126175 29.368382 
L 161.200555 55.054669 
L 164.274935 184.602897 
L 167.349316 28.251587 
L 170.423696 18.200431 
L 173.498076 23.784407 
L 176.572456 47.237103 
L 179.646836 17.083636 
L 182.721216 17.083636 
L 185.795597 203.588413 
L 188.869977 128.763143 
L 191.944357 17.083636 
L 195.018737 17.083636 
L 198.093117 202.471618 
L 201.167497 22.667612 
L 204.241878 28.251587 
L 207.316258 137.697504 
L 210.390638 184.602897 
L 213.465018 17.083636 
L 216.539398 214.756364 
L 219.613778 184.602897 
L 222.688159 117.595193 
L 225.762539 118.711988 
L 228.836919 17.083636 
L 231.911299 124.295963 
L 234.985679 141.047889 
L 238.060059 67.339414 
L 241.13444 18.200431 
L 244.20882 17.083636 
L 247.2832 193.537257 
L 250.35758 40.536333 
L 253.43196 41.653128 
L 256.50634 117.595193 
L 259.580721 34.952357 
L 262.655101 208.055593 
L 265.729481 17.083636 
L 268.803861 17.083636 
L 271.878241 144.398274 
L 274.952621 28.251587 
L 278.027002 33.835562 
L 281.101382 195.770847 
L 284.175762 17.083636 
L 287.250142 17.083636 
L 290.324522 185.719692 
L 293.398902 135.463914 
L 296.473283 17.083636 
L 299.547663 123.179168 
L 302.622043 208.055593 
L 305.696423 117.595193 
L 308.770803 117.595193 
L 311.845183 214.756364 
L 314.919564 30.485177 
L 317.993944 28.251587 
L 321.068324 28.251587 
L 324.142704 128.763143 
L 327.217084 184.602897 
L 330.291464 144.398274 
L 333.365845 117.595193 
L 336.440225 17.083636 
L 339.514605 28.251587 
L 342.588985 117.595193 
L 345.663365 34.952357 
L 348.737745 134.347119 
L 351.812126 17.083636 
L 354.886506 206.938798 
" style="fill:none;stroke:#0000ff;stroke-linecap:square;stroke-width:3;"/>
   </g>
   <g id="line2d_16">
    <path clip-path="url(#p377f3e05cf)" d="M 50.522869 192.420462 
L 53.597249 194.095655 
L 56.67163 195.770847 
L 59.74601 151.099045 
L 62.82039 125.859476 
L 65.89477 107.916302 
L 68.96915 94.940207 
L 72.04353 107.125239 
L 75.117911 109.033097 
L 78.192291 99.838151 
L 81.266671 104.193652 
L 84.341051 96.934484 
L 87.415431 105.739983 
L 90.489811 112.170759 
L 93.564192 118.637535 
L 96.638572 112.290416 
L 99.712952 117.332417 
L 102.787332 112.383482 
L 105.861712 107.367701 
L 108.936092 108.158274 
L 112.010473 111.798494 
L 115.084853 112.417325 
L 118.159233 113.176569 
L 121.233613 111.080555 
L 124.307993 114.021448 
L 127.382373 111.023283 
L 130.456754 111.266687 
L 133.531134 111.732018 
L 136.605514 114.244807 
L 139.679894 111.750632 
L 142.754274 114.280833 
L 145.828654 111.48772 
L 148.903035 112.214271 
L 151.977415 112.372533 
L 155.051795 112.521752 
L 158.126175 110.211936 
L 161.200555 108.721199 
L 164.274935 110.718086 
L 167.349316 108.603561 
L 170.423696 106.343482 
L 173.498076 104.329846 
L 176.572456 102.970495 
L 179.646836 100.973126 
L 182.721216 99.066547 
L 185.795597 101.389255 
L 188.869977 101.98434 
L 191.944357 100.177942 
L 195.018737 98.44681 
L 198.093117 100.569766 
L 201.167497 99.011723 
L 204.241878 97.624269 
L 207.316258 98.394908 
L 210.390638 100.021474 
L 213.465018 98.485588 
L 216.539398 100.599602 
L 219.613778 102.099661 
L 222.688159 102.371512 
L 225.762539 102.653245 
L 228.836919 101.202912 
L 231.911299 101.587797 
L 234.985679 102.234683 
L 238.060059 101.671856 
L 241.13444 100.346913 
L 244.20882 99.045924 
L 247.2832 100.499637 
L 250.35758 99.591102 
L 253.43196 98.726357 
L 256.50634 99.003839 
L 259.580721 98.075557 
L 262.655101 99.6467 
L 265.729481 98.48384 
L 268.803861 97.353282 
L 271.878241 97.997734 
L 274.952621 97.055218 
L 278.027002 96.21229 
L 281.101382 97.522271 
L 284.175762 96.477613 
L 287.250142 95.459742 
L 290.324522 96.602273 
L 293.398902 97.088043 
L 296.473283 96.100334 
L 299.547663 96.430564 
L 302.622043 97.775444 
L 305.696423 98.011393 
L 308.770803 98.241791 
L 311.845183 99.596612 
L 314.919564 98.802227 
L 317.993944 98.000515 
L 321.068324 97.21682 
L 324.142704 97.567334 
L 327.217084 98.523769 
L 330.291464 99.022405 
L 333.365845 99.222112 
L 336.440225 98.348299 
L 339.514605 97.610439 
L 342.588985 97.818613 
L 345.663365 97.170508 
L 348.737745 97.549861 
L 351.812126 96.737071 
L 354.886506 97.839088 
" style="fill:none;stroke:#ff0000;stroke-linecap:square;stroke-width:3;"/>
   </g>
   <g id="patch_3">
    <path d="M 35.304688 224.64 
L 35.304688 7.2 
" style="fill:none;stroke:#000000;stroke-linecap:square;stroke-linejoin:miter;stroke-width:0.8;"/>
   </g>
   <g id="patch_4">
    <path d="M 370.104688 224.64 
L 370.104688 7.2 
" style="fill:none;stroke:#000000;stroke-linecap:square;stroke-linejoin:miter;stroke-width:0.8;"/>
   </g>
   <g id="patch_5">
    <path d="M 35.304688 224.64 
L 370.104688 224.64 
" style="fill:none;stroke:#000000;stroke-linecap:square;stroke-linejoin:miter;stroke-width:0.8;"/>
   </g>
   <g id="patch_6">
    <path d="M 35.304688 7.2 
L 370.104688 7.2 
" style="fill:none;stroke:#000000;stroke-linecap:square;stroke-linejoin:miter;stroke-width:0.8;"/>
   </g>
  </g>
 </g>
 <defs>
  <clipPath id="p377f3e05cf">
   <rect height="217.44" width="334.8" x="35.304688" y="7.2"/>
  </clipPath>
 </defs>
</svg>
